<svg xmlns="http://www.w3.org/2000/svg" width="1280" height="720" viewBox="0 0 1280 720">
  <rect width="1280" height="720" fill="#f6f7f9"/>
  <rect x="80" y="20" width="680" height="40" rx="12" fill="#ecfdf5" stroke="#a7f3d0"/>
  <text x="105" y="47" font-family="PingFang SC, Hiragino Sans GB, Arial Unicode MS, sans-serif" font-size="22" font-weight="700" fill="#065f46">第一步：在“应用程序”里右键 / Control 点击 NetTool.app，然后选择“打开”。</text>
  <rect x="80" y="70" width="1120" height="580" rx="24" fill="#fff" stroke="#dde2e8" stroke-width="2"/>
  <circle cx="126" cy="111" r="11" fill="#ff5f57"/>
  <circle cx="160" cy="111" r="11" fill="#ffbd2e"/>
  <circle cx="194" cy="111" r="11" fill="#27c93f"/>
  <text x="212" y="120" font-family="PingFang SC, Hiragino Sans GB, Arial Unicode MS, sans-serif" font-size="28" font-weight="700" fill="#525860">应用程序</text>
  <rect x="100" y="150" width="210" height="470" rx="16" fill="#f8f9fa"/>
  <text x="130" y="207" font-family="PingFang SC, Hiragino Sans GB, Arial Unicode MS, sans-serif" font-size="22" font-weight="700" fill="#8c949e">个人收藏</text>
  <text x="130" y="264" font-family="PingFang SC, Hiragino Sans GB, Arial Unicode MS, sans-serif" font-size="26" font-weight="700" fill="#1f2328">应用程序</text>
  <text x="130" y="316" font-family="PingFang SC, Hiragino Sans GB, Arial Unicode MS, sans-serif" font-size="24" fill="#525860">下载</text>
  <rect x="510" y="240" width="160" height="160" rx="34" fill="#232b3a" stroke="#38bdf8" stroke-width="4"/>
  <path d="M553 299 L600 322 L553 352" fill="none" stroke="#46e6bc" stroke-width="16" stroke-linecap="round" stroke-linejoin="round"/>
  <line x1="606" y1="352" x2="642" y2="352" stroke="#e6e8ec" stroke-width="10" stroke-linecap="round"/>
  <text x="590" y="440" text-anchor="middle" font-family="PingFang SC, Hiragino Sans GB, Arial Unicode MS, sans-serif" font-size="26" font-weight="700" fill="#1f2328">NetTool.app</text>
  <rect x="705" y="230" width="310" height="300" rx="18" fill="#fff" stroke="#cfd6df" stroke-width="2"/>
  <rect x="715" y="244" width="290" height="52" rx="10" fill="#10b981"/>
  <text x="740" y="279" font-family="PingFang SC, Hiragino Sans GB, Arial Unicode MS, sans-serif" font-size="26" font-weight="700" fill="#fff">打开</text>
  <text x="740" y="329" font-family="PingFang SC, Hiragino Sans GB, Arial Unicode MS, sans-serif" font-size="26" fill="#374151">显示包内容</text>
  <text x="740" y="383" font-family="PingFang SC, Hiragino Sans GB, Arial Unicode MS, sans-serif" font-size="26" fill="#374151">移到废纸篓</text>
  <text x="740" y="437" font-family="PingFang SC, Hiragino Sans GB, Arial Unicode MS, sans-serif" font-size="26" fill="#374151">显示简介</text>
  <text x="740" y="491" font-family="PingFang SC, Hiragino Sans GB, Arial Unicode MS, sans-serif" font-size="26" fill="#374151">重命名</text>
  <path d="M450 150 L740 250" stroke="#10b981" stroke-width="6" fill="none"/>
  <path d="M740 250 L719 252 L732 236 Z" fill="#10b981"/>
</svg>
